<?xml version="1.0" standalone="no"?>
<!DOCTYPE svg PUBLIC "-//W3C//DTD SVG 20010904//EN"
 "http://www.w3.org/TR/2001/REC-SVG-20010904/DTD/svg10.dtd">
<svg version="1.0" xmlns="http://www.w3.org/2000/svg"
 width="1254.000000pt" height="1254.000000pt" viewBox="0 0 1254.000000 1254.000000"
 preserveAspectRatio="xMidYMid meet">

<g transform="translate(0.000000,1254.000000) scale(0.100000,-0.100000)"
fill="currentColor" stroke="none">
<path d="M5036 8764 c-63 -23 -102 -59 -135 -125 l-31 -62 0 -559 0 -558 -102
-2 c-57 -1 -274 -2 -483 -3 -374 0 -381 -1 -430 -23 -60 -28 -100 -63 -128
-117 -22 -40 -22 -47 -25 -632 l-3 -593 -448 0 c-501 0 -509 -1 -579 -69 -21
-20 -47 -55 -57 -76 -19 -39 -20 -64 -20 -715 l0 -675 22 -41 c12 -23 41 -58
65 -78 84 -72 -229 -66 3613 -64 l3470 3 55 30 c68 38 115 98 130 168 7 36 10
253 8 687 -3 621 -3 636 -24 680 -25 54 -64 94 -119 124 -39 20 -53 21 -500
26 l-460 5 -5 595 c-4 486 -8 600 -19 620 -33 58 -66 91 -119 117 l-57 28
-480 0 -480 0 -5 575 c-5 570 -5 575 -27 617 -28 52 -83 98 -142 118 -65 22
-2424 22 -2485 -1z m2364 -788 l0 -514 -42 -4 c-24 -3 -527 -5 -1118 -4
l-1075 1 -3 505 c-1 278 0 511 3 518 3 9 237 12 1120 12 l1115 0 0 -514z
m-1270 -1351 l0 -535 -1070 0 -1070 0 0 535 0 535 1070 0 1070 0 0 -535z
m2430 0 l0 -535 -1067 2 -1068 3 -3 533 -2 532 1070 0 1070 0 0 -535z m-3690
-1390 l0 -565 -995 0 -995 0 0 565 0 565 995 0 995 0 0 -565z m2530 0 l0 -565
-1120 0 -1120 0 0 565 0 565 1120 0 1120 0 0 -565z m2270 0 l0 -565 -990 0
-990 0 0 565 0 565 990 0 990 0 0 -565z"/>
</g>
</svg>
