<?xml version="1.0" standalone="no"?>
<!DOCTYPE svg PUBLIC "-//W3C//DTD SVG 20010904//EN"
 "http://www.w3.org/TR/2001/REC-SVG-20010904/DTD/svg10.dtd">
<svg version="1.0" xmlns="http://www.w3.org/2000/svg"
 width="1254.000000pt" height="1254.000000pt" viewBox="0 0 1254.000000 1254.000000"
 preserveAspectRatio="xMidYMid meet">

<g transform="translate(0.000000,1254.000000) scale(0.100000,-0.100000)"
fill="currentColor" stroke="none">
<path d="M3410 9134 c-109 -29 -189 -98 -239 -203 -25 -54 -26 -61 -26 -251 0
-129 4 -209 13 -237 24 -79 87 -154 175 -208 15 -9 15 -16 -3 -85 -38 -145
-130 -617 -159 -825 -75 -519 -95 -837 -88 -1370 6 -474 25 -686 103 -1180
l37 -230 -45 -65 c-117 -168 -188 -375 -188 -549 0 -109 13 -145 74 -207 73
-72 144 -94 305 -94 133 0 247 23 345 69 59 28 64 29 161 21 364 -30 1124 -37
1500 -14 l100 6 14 -32 c19 -44 70 -93 127 -121 l49 -24 1555 0 1555 0 48 24
c26 13 65 43 86 68 61 69 71 110 71 307 l1 171 127 91 c489 350 775 560 792
581 18 24 20 41 20 229 0 202 0 203 -25 232 -16 20 -51 39 -100 57 -41 15 -75
29 -75 30 0 2 18 21 40 43 l40 40 0 305 0 306 -29 33 c-25 28 -58 43 -220 98
-105 36 -191 67 -190 70 0 3 36 31 80 63 55 40 85 69 95 92 18 43 21 566 3
612 -21 56 -47 71 -213 124 -89 28 -228 73 -311 99 -82 27 -458 146 -835 266
-377 119 -815 258 -975 309 l-290 92 -13 64 c-7 35 -26 124 -42 198 l-29 134
39 45 c22 24 50 69 62 101 21 52 23 71 23 251 0 183 -2 199 -24 255 -33 81
-115 163 -196 196 l-60 24 -1605 2 c-1389 2 -1612 0 -1660 -13z m3252 -282
c22 -22 23 -29 23 -181 0 -179 -5 -192 -74 -211 -40 -10 -2823 -14 -3026 -3
-113 6 -121 7 -147 34 l-28 27 0 147 c0 86 4 155 11 166 26 50 -37 48 1646 46
l1572 -2 23 -23z m-70 -747 c136 -625 195 -1316 169 -1980 -6 -170 -15 -345
-18 -387 l-6 -78 -151 0 c-137 0 -156 -2 -201 -24 -59 -27 -107 -72 -138 -130
-21 -40 -22 -51 -25 -413 l-3 -373 -273 0 -273 0 -61 -31 c-66 -33 -116 -86
-138 -147 -10 -27 -13 -109 -14 -298 l0 -262 -137 -8 c-240 -15 -1049 -9
-1344 10 l-267 17 -69 -35 c-85 -43 -176 -66 -268 -66 -106 0 -115 5 -115 54
1 113 77 299 174 423 75 96 80 111 62 192 -20 87 -71 395 -90 546 -97 753 -78
1523 60 2348 30 183 86 465 121 615 l27 112 1480 -2 1481 -3 17 -80z m831
-649 c249 -79 605 -192 792 -251 388 -122 735 -232 879 -279 l99 -32 -322
-237 c-176 -130 -325 -237 -329 -237 -4 0 -206 72 -447 159 -242 87 -573 207
-735 265 -162 59 -305 111 -317 116 -18 7 -22 20 -27 72 -10 115 -47 472 -53
521 -3 26 -2 47 2 47 4 0 210 -65 458 -144z m152 -903 c193 -69 406 -145 475
-169 69 -25 189 -68 268 -96 l142 -51 0 -139 c0 -76 -3 -138 -7 -138 -10 0
-223 76 -868 308 l-550 199 -3 141 -3 141 98 -35 c54 -20 256 -92 448 -161z
m1745 57 l0 -129 -77 -58 c-336 -248 -596 -432 -604 -428 -5 4 -9 59 -9 124 0
109 2 119 23 138 36 33 650 483 659 483 4 0 8 -58 8 -130z m-1923 -534 c381
-137 598 -215 917 -330 119 -44 225 -76 246 -76 43 0 35 -5 328 209 122 89
227 161 234 161 16 0 310 -101 321 -110 9 -8 -655 -500 -683 -507 -9 -2 -132
37 -273 87 l-257 92 -36 -27 -36 -27 -31 32 c-17 17 -49 41 -71 53 -40 22 -50
22 -545 25 l-504 3 7 112 c3 62 9 183 12 270 4 86 11 157 15 157 5 0 165 -56
356 -124z m2173 -435 l0 -129 -72 -53 c-90 -65 -618 -442 -635 -452 -10 -6
-13 19 -13 116 l0 124 101 74 c56 41 215 158 353 261 138 102 254 187 259 187
4 1 7 -57 7 -128z m-1620 -237 c7 -7 10 -119 11 -334 0 -297 -1 -326 -17 -337
-14 -10 -169 -13 -733 -13 -651 0 -716 1 -733 17 -17 15 -18 39 -18 328 0 320
2 334 40 348 29 11 1438 3 1450 -9z m660 -146 l65 -23 2 -128 c1 -95 -2 -127
-11 -127 -7 0 -110 34 -230 75 -120 41 -220 75 -222 75 -2 0 -4 61 -4 135 l0
134 168 -58 c92 -33 196 -70 232 -83z m980 -142 l95 -33 3 -89 c3 -87 2 -88
-26 -111 -27 -20 -102 -75 -534 -385 -76 -54 -139 -98 -141 -98 -2 0 -7 29 -9
64 -7 82 -46 156 -105 199 -34 24 -41 33 -31 42 7 7 139 101 293 210 154 109
291 207 305 216 33 24 40 24 150 -15z m-951 -392 c2 -2 -93 -4 -212 -4 l-217
0 0 78 0 79 212 -74 c117 -41 215 -76 217 -79z m-1551 -271 c9 -13 12 -94 12
-327 0 -274 -2 -312 -17 -328 -15 -17 -50 -18 -680 -18 -439 0 -671 4 -684 10
-18 10 -19 25 -19 334 0 258 3 326 13 335 15 12 478 18 1037 13 290 -2 326 -4
338 -19z m1642 -2 c6 -12 10 -134 10 -325 0 -293 -1 -307 -20 -326 -20 -20
-33 -20 -684 -20 -591 0 -666 2 -680 16 -14 13 -16 57 -16 325 0 195 4 318 10
330 10 18 29 19 690 19 661 0 680 -1 690 -19z"/>
<path d="M4834 7291 c-21 -15 -163 -135 -314 -266 -151 -131 -346 -299 -432
-374 -125 -107 -161 -143 -173 -176 -14 -34 -15 -109 -13 -542 3 -489 4 -502
24 -530 11 -15 36 -36 55 -45 32 -17 97 -18 937 -18 992 0 947 -3 993 61 l24
34 0 515 c0 439 -2 519 -15 542 -8 14 -85 87 -170 160 -565 487 -734 631 -762
648 -49 29 -107 26 -154 -9z m377 -531 c155 -135 322 -279 371 -320 l88 -75
-3 -375 -2 -375 -747 -3 -748 -2 0 378 0 378 123 106 c527 457 622 538 628
536 4 -2 134 -113 290 -248z"/>
</g>
</svg>
