<?xml version="1.0" standalone="no"?>
<!DOCTYPE svg PUBLIC "-//W3C//DTD SVG 20010904//EN"
 "http://www.w3.org/TR/2001/REC-SVG-20010904/DTD/svg10.dtd">
<svg version="1.0" xmlns="http://www.w3.org/2000/svg"
 width="1254.000000pt" height="1254.000000pt" viewBox="0 0 1254.000000 1254.000000"
 preserveAspectRatio="xMidYMid meet">

<g transform="translate(0.000000,1254.000000) scale(0.100000,-0.100000)"
fill="currentColor" stroke="none">
<path d="M5346 9635 c-74 -30 -122 -68 -163 -129 -44 -65 -63 -134 -63 -232
l0 -83 -492 -3 -493 -3 -55 -27 c-80 -40 -122 -79 -161 -150 l-34 -63 0 -2825
0 -2825 29 -53 c34 -61 95 -120 158 -154 l43 -23 2155 0 2155 0 47 23 c70 34
130 93 163 158 l30 59 0 2815 0 2815 -26 55 c-33 69 -97 133 -169 168 l-55 27
-491 3 -491 3 -5 99 c-4 90 -9 107 -42 175 -43 87 -102 141 -191 174 -55 21
-70 21 -923 21 l-867 0 -59 -25z m1757 -293 c13 -14 18 -51 23 -177 8 -184 -1
-308 -23 -330 -12 -13 -122 -15 -830 -15 -746 0 -818 1 -835 17 -16 15 -18 36
-18 250 0 220 1 234 20 253 20 20 33 20 833 20 768 0 815 -1 830 -18z m-1983
-495 c0 -119 105 -261 227 -307 54 -20 69 -20 941 -18 l887 3 59 30 c102 52
173 154 191 278 l7 47 459 0 c443 0 459 -1 469 -19 16 -30 14 -5463 -2 -5479
-9 -9 -487 -12 -2089 -12 -1885 0 -2077 1 -2083 16 -3 9 -6 1243 -6 2743 0
2108 3 2730 12 2739 9 9 127 12 470 12 l458 0 0 -33z"/>
<path d="M5245 8012 c-16 -11 -88 -81 -159 -156 l-130 -137 -60 59 c-72 70
-92 82 -142 82 -29 0 -44 -8 -75 -39 -34 -34 -39 -44 -39 -86 0 -48 0 -48 122
-171 196 -199 192 -200 457 73 211 217 226 240 200 310 -28 72 -111 103 -174
65z"/>
<path d="M5806 7799 c-60 -52 -61 -126 -1 -186 l33 -33 996 0 996 0 38 34 c34
32 37 38 37 91 0 53 -3 59 -37 91 l-38 34 -995 0 -994 0 -35 -31z"/>
<path d="M5240 7125 c-14 -8 -83 -75 -154 -150 l-128 -136 -59 56 c-74 71
-116 89 -169 75 -55 -15 -90 -63 -90 -124 0 -46 2 -49 98 -148 126 -131 163
-158 216 -158 23 1 51 6 63 13 12 7 105 98 206 203 200 206 218 235 197 299
-17 51 -62 85 -113 85 -23 -1 -53 -7 -67 -15z"/>
<path d="M5831 6932 c-38 -20 -71 -73 -71 -112 0 -40 32 -92 70 -112 33 -17
83 -18 1003 -18 1066 0 1017 -3 1057 62 40 66 13 155 -55 184 -29 12 -183 14
-1002 14 -919 0 -970 -1 -1002 -18z"/>
<path d="M5239 6232 c-14 -9 -84 -77 -154 -150 l-127 -132 -68 64 c-96 90
-159 99 -220 30 -34 -39 -40 -95 -16 -142 19 -37 219 -230 251 -242 40 -15 87
-12 115 8 14 9 109 103 212 208 154 158 188 197 193 228 14 74 -44 146 -118
146 -23 0 -54 -8 -68 -18z"/>
<path d="M5805 6027 c-59 -59 -59 -134 0 -185 29 -27 43 -31 117 -37 46 -3
490 -5 988 -3 878 3 906 4 937 23 71 42 82 141 24 199 l-31 31 -1001 3 -1001
2 -33 -33z"/>
<path d="M5150 5416 c-166 -35 -328 -124 -456 -251 -91 -91 -127 -140 -183
-252 -226 -453 -39 -1006 419 -1238 141 -72 283 -101 453 -92 294 14 545 160
713 414 64 96 93 158 125 268 21 71 24 99 24 250 -1 159 -3 175 -29 255 -72
217 -199 387 -380 509 -90 61 -150 89 -256 121 -95 28 -329 37 -430 16z m355
-252 c113 -28 202 -80 301 -179 76 -75 98 -104 133 -176 97 -201 95 -413 -6
-618 -53 -107 -188 -243 -293 -294 -106 -51 -187 -70 -305 -70 -268 0 -488
139 -613 388 -56 112 -78 245 -62 369 54 415 437 678 845 580z"/>
<path d="M5280 4990 c-11 -11 -20 -33 -20 -50 0 -24 -5 -31 -27 -36 -183 -44
-261 -248 -144 -377 41 -46 89 -69 204 -97 110 -28 135 -39 143 -62 17 -54
-22 -88 -101 -88 -44 0 -115 26 -115 42 0 15 -65 48 -95 48 -66 0 -108 -70
-81 -135 17 -39 81 -85 153 -111 45 -16 52 -22 58 -51 16 -86 144 -84 161 2 5
27 12 37 33 42 74 17 148 78 175 145 23 54 21 150 -4 198 -36 70 -95 104 -258
146 -53 14 -102 30 -110 36 -7 6 -12 25 -10 42 7 68 116 75 207 13 29 -20 64
-37 78 -37 32 0 93 60 93 92 0 57 -59 113 -151 143 -38 13 -48 21 -53 45 -13
65 -92 94 -136 50z"/>
<path d="M6535 4770 c-66 -27 -95 -125 -55 -188 40 -65 17 -63 798 -60 663 3
710 4 735 21 65 42 83 121 42 183 -36 55 -26 54 -792 53 -389 0 -717 -4 -728
-9z"/>
<path d="M6557 4269 c-70 -19 -102 -66 -94 -137 3 -32 13 -53 36 -76 l31 -31
386 0 386 0 34 37 c27 30 34 46 34 78 0 23 -7 54 -15 70 -29 57 -39 58 -423
62 -194 1 -363 0 -375 -3z"/>
</g>
</svg>
