<?xml version="1.0" standalone="no"?>
<!DOCTYPE svg PUBLIC "-//W3C//DTD SVG 20010904//EN"
 "http://www.w3.org/TR/2001/REC-SVG-20010904/DTD/svg10.dtd">
<svg version="1.0" xmlns="http://www.w3.org/2000/svg"
 width="1254.000000pt" height="1254.000000pt" viewBox="0 0 1254.000000 1254.000000"
 preserveAspectRatio="xMidYMid meet">

<g transform="translate(0.000000,1254.000000) scale(0.100000,-0.100000)"
fill="currentColor" stroke="none">
<path d="M3970 9316 c-30 -7 -70 -20 -89 -30 -61 -32 -127 -103 -157 -169
l-29 -62 0 -650 0 -650 27 -57 c58 -124 159 -196 287 -207 l76 -6 5 -465 5
-465 37 -78 c93 -194 296 -304 500 -269 159 28 287 124 355 268 36 75 37 82
43 226 8 166 18 195 78 212 48 13 86 -8 130 -73 77 -112 180 -166 317 -166 69
0 90 5 147 32 84 39 136 92 179 179 l34 68 5 266 5 265 1050 0 1050 0 57 23
c80 32 150 99 190 180 l33 66 3 258 3 258 100 0 c70 0 109 -5 129 -15 60 -31
60 -28 60 -548 l0 -474 -23 -34 c-41 -61 -71 -73 -253 -102 -1925 -306 -1908
-303 -1975 -339 -74 -39 -152 -121 -187 -195 -27 -57 -27 -61 -30 -304 l-4
-246 -69 -5 c-139 -10 -262 -96 -326 -227 l-28 -56 0 -875 0 -875 32 -66 c39
-80 111 -150 191 -187 l57 -27 280 0 280 0 58 28 c110 54 191 157 216 275 8
37 11 299 11 855 0 684 -2 811 -15 861 -42 162 -182 279 -350 295 l-70 6 -3
188 c-1 115 2 204 9 229 13 52 56 95 100 102 68 11 292 47 699 111 437 69 939
149 1200 191 125 20 169 31 226 59 113 55 197 159 229 282 14 53 15 132 13
561 l-3 499 -40 79 c-31 62 -53 89 -100 126 -86 70 -145 89 -292 95 l-121 6
-4 256 -3 256 -29 62 c-35 76 -104 144 -184 181 l-57 27 -2005 2 c-1554 1
-2017 -1 -2060 -11z m4029 -271 c16 -8 31 -22 35 -30 3 -9 6 -286 6 -615 l0
-598 -31 -26 -31 -26 -1978 0 -1978 0 -31 26 -31 26 0 603 0 603 31 26 31 26
1974 0 c1714 0 1979 -2 2003 -15z m-2351 -1803 l2 -240 -25 -30 c-51 -60 -133
-47 -178 30 -33 57 -99 117 -162 148 -43 22 -64 25 -150 25 -89 0 -106 -3
-157 -28 -74 -36 -135 -98 -172 -173 -27 -55 -30 -70 -36 -209 -7 -161 -15
-187 -67 -237 -104 -99 -273 -65 -334 67 -17 37 -19 73 -19 461 0 231 2 423 5
426 3 3 294 4 648 2 l642 -2 3 -240z m837 -1506 c19 -8 44 -30 55 -48 20 -33
20 -44 18 -850 l-3 -818 -33 -32 -32 -33 -210 -3 c-230 -3 -260 2 -297 56 -17
26 -18 72 -18 839 0 805 0 812 21 840 41 56 70 63 277 63 141 0 196 -4 222
-14z"/>
</g>
</svg>
