<?xml version="1.0" standalone="no"?>
<!DOCTYPE svg PUBLIC "-//W3C//DTD SVG 20010904//EN"
 "http://www.w3.org/TR/2001/REC-SVG-20010904/DTD/svg10.dtd">
<svg version="1.0" xmlns="http://www.w3.org/2000/svg"
 width="1254.000000pt" height="1254.000000pt" viewBox="0 0 1254.000000 1254.000000"
 preserveAspectRatio="xMidYMid meet">

<g transform="translate(0.000000,1254.000000) scale(0.100000,-0.100000)"
fill="currentColor" stroke="none">
<path d="M4765 8650 c-504 -46 -974 -258 -1331 -602 -370 -356 -593 -778 -671
-1269 -16 -104 -18 -194 -18 -999 0 -1005 -3 -961 82 -1133 38 -76 62 -108
137 -183 78 -78 105 -98 187 -138 53 -25 127 -53 165 -60 58 -12 547 -15 3091
-18 l3021 -3 29 21 c99 73 97 207 -3 266 -29 17 -95 18 -1212 18 -650 0 -1182
3 -1182 7 0 3 14 33 30 67 51 103 61 156 67 349 l6 177 163 0 164 0 0 -126 c0
-125 0 -126 29 -155 33 -33 75 -38 120 -15 42 22 51 55 51 182 l0 114 178 -2
177 -3 1 -88 c2 -98 14 -126 64 -147 43 -18 89 -3 117 39 19 29 23 47 23 117
l0 84 178 0 177 0 2 -128 2 -127 31 -27 c44 -40 92 -38 136 6 l34 34 0 121 0
121 174 0 174 0 4 -94 c3 -83 6 -97 27 -120 32 -34 80 -42 119 -22 45 23 52
43 52 145 l0 91 135 0 134 0 3 -504 c3 -492 4 -505 24 -532 38 -51 71 -69 129
-69 58 0 91 18 129 69 21 27 21 37 21 639 l0 612 -23 33 c-51 71 60 66 -1419
64 l-1333 -1 0 254 0 255 44 0 c47 0 96 27 129 71 18 25 25 64 43 240 5 52 8
57 32 62 62 13 123 104 159 237 26 98 24 300 -5 403 -28 97 -62 166 -108 217
-55 61 -96 81 -176 89 l-71 6 -43 99 c-61 140 -136 267 -174 293 -56 39 -101
40 -200 7 -10 -3 -35 22 -77 78 -298 402 -771 712 -1264 828 -202 47 -487 68
-684 50z m430 -322 c198 -22 474 -112 660 -213 471 -257 820 -715 950 -1246
44 -180 46 -260 43 -1184 l-3 -870 -29 -57 c-36 -72 -93 -131 -159 -166 l-52
-27 -1620 0 -1620 0 -70 34 c-92 46 -157 112 -203 209 l-37 77 -3 820 c-3 850
0 949 38 1133 45 217 154 472 285 667 189 282 432 493 740 641 355 171 689
228 1080 182z"/>
<path d="M4770 7714 c-178 -32 -296 -70 -433 -141 -353 -182 -617 -544 -688
-943 -17 -95 -18 -344 -1 -435 87 -475 435 -879 883 -1025 147 -48 248 -64
414 -64 514 1 960 284 1181 749 142 298 161 673 52 985 -125 355 -403 649
-747 788 -166 66 -255 84 -456 87 -99 2 -191 2 -205 -1z m410 -329 c336 -90
601 -337 711 -662 41 -121 53 -214 46 -361 -4 -95 -12 -150 -32 -217 -98 -338
-353 -593 -690 -691 -122 -36 -340 -45 -466 -20 -347 70 -642 328 -756 661
-106 310 -50 646 154 920 151 203 367 332 653 388 56 12 316 -1 380 -18z"/>
</g>
</svg>
