<?xml version="1.0" standalone="no"?>
<!DOCTYPE svg PUBLIC "-//W3C//DTD SVG 20010904//EN"
 "http://www.w3.org/TR/2001/REC-SVG-20010904/DTD/svg10.dtd">
<svg version="1.0" xmlns="http://www.w3.org/2000/svg"
 width="1254.000000pt" height="1254.000000pt" viewBox="0 0 1254.000000 1254.000000"
 preserveAspectRatio="xMidYMid meet">

<g transform="translate(0.000000,1254.000000) scale(0.100000,-0.100000)"
fill="currentColor" stroke="none">
<path d="M4154 8516 c-59 -27 -116 -81 -143 -134 -10 -20 -58 -203 -105 -407
-48 -203 -112 -476 -143 -605 -30 -129 -84 -356 -118 -505 -35 -148 -75 -319
-90 -380 -36 -149 -191 -806 -220 -930 -12 -55 -39 -167 -59 -250 -201 -845
-226 -960 -226 -1022 0 -107 65 -203 166 -250 l51 -23 3019 2 3019 3 47 27
c88 53 148 152 148 248 0 40 -54 276 -330 1440 -178 750 -368 1554 -405 1715
-110 478 -206 874 -221 914 -21 55 -73 114 -133 149 l-46 27 -2080 2 -2080 3
-51 -24z m1286 -259 c0 -7 -16 -204 -35 -437 -19 -234 -35 -433 -35 -442 0
-17 -38 -18 -665 -18 l-665 0 5 23 c29 121 205 881 205 884 0 2 268 3 595 3
476 0 595 -3 595 -13z m1420 -25 c0 -35 53 -704 65 -819 l5 -53 -645 0 -646 0
6 58 c9 88 65 803 65 829 l0 23 575 0 575 0 0 -38z m1442 3 c38 -146 198 -839
198 -857 0 -17 -31 -18 -650 -18 -557 0 -650 2 -650 14 0 8 -16 203 -35 433
-19 230 -35 428 -35 441 l0 22 582 -2 582 -3 8 -30z m-2965 -1232 c-3 -49 -17
-216 -31 -373 -14 -157 -30 -343 -36 -415 -6 -71 -13 -154 -16 -182 l-6 -53
-764 0 c-486 0 -764 4 -764 10 0 10 248 1067 255 1088 3 9 150 12 686 12 l682
0 -6 -87z m1617 45 c3 -24 15 -158 26 -298 11 -140 29 -364 40 -498 11 -134
20 -250 20 -258 0 -12 -107 -14 -755 -14 l-755 0 0 39 c0 21 14 197 30 392 17
195 35 406 40 469 5 63 12 136 16 163 l6 47 663 0 664 0 5 -42z m1616 37 c0
-3 39 -166 86 -363 133 -554 151 -634 159 -672 3 -19 9 -43 11 -53 5 -16 -34
-17 -753 -15 l-758 3 -8 95 c-4 52 -24 298 -45 545 -21 248 -37 453 -35 458 5
8 1343 10 1343 2z m-3346 -1412 c-3 -27 -25 -291 -50 -588 -24 -297 -50 -600
-56 -672 l-11 -133 -894 0 c-852 0 -893 1 -893 18 0 10 58 261 129 557 71 297
146 613 167 703 l38 162 787 0 788 0 -5 -47z m1848 -73 c5 -63 19 -250 33
-415 14 -165 35 -415 45 -555 11 -140 21 -276 23 -302 l4 -48 -899 0 -900 0 6
58 c4 31 29 323 56 647 27 325 52 623 55 663 l7 72 781 -2 782 -3 7 -115z
m1874 -110 c30 -124 69 -290 88 -370 20 -80 62 -260 96 -400 33 -140 69 -291
80 -335 11 -45 20 -86 20 -93 0 -9 -197 -12 -889 -12 l-888 0 -7 69 c-5 61
-22 270 -81 1011 -9 102 -18 224 -22 273 l-6 87 778 -2 778 -3 53 -225z"/>
</g>
</svg>
