<?xml version="1.0" standalone="no"?>
<!DOCTYPE svg PUBLIC "-//W3C//DTD SVG 20010904//EN"
 "http://www.w3.org/TR/2001/REC-SVG-20010904/DTD/svg10.dtd">
<svg version="1.0" xmlns="http://www.w3.org/2000/svg"
 width="1254.000000pt" height="1254.000000pt" viewBox="0 0 1254.000000 1254.000000"
 preserveAspectRatio="xMidYMid meet">

<g transform="translate(0.000000,1254.000000) scale(0.100000,-0.100000)"
fill="currentColor" stroke="none">
<path d="M7554 9294 c-277 -46 -561 -199 -765 -411 -328 -341 -461 -794 -369
-1258 l20 -100 -198 -198 -199 -198 -529 536 -529 537 -76 219 c-56 163 -84
228 -105 250 -15 16 -96 71 -178 123 -470 291 -734 454 -753 464 -33 18 -104
14 -139 -7 -17 -10 -129 -118 -250 -240 -230 -233 -250 -260 -241 -333 3 -22
35 -86 80 -160 41 -68 152 -251 247 -408 95 -157 182 -301 193 -320 27 -46 66
-89 97 -105 14 -7 118 -47 231 -90 l206 -77 536 -536 537 -537 -413 -415
c-1382 -1391 -1394 -1404 -1444 -1481 -90 -138 -131 -295 -120 -452 14 -187
77 -327 207 -458 94 -95 175 -146 298 -187 68 -23 94 -26 217 -26 135 -1 144
1 240 34 125 44 197 91 305 200 47 47 432 433 854 858 l769 774 66 -66 66 -66
2 -103 c2 -125 14 -180 60 -277 34 -72 58 -98 682 -723 491 -493 664 -660 721
-698 235 -155 559 -185 828 -75 174 70 343 231 434 411 58 113 80 210 85 365
4 132 2 154 -21 243 -29 111 -59 183 -110 260 -19 29 -336 355 -703 724 -574
576 -677 675 -729 701 -87 45 -164 62 -274 62 l-96 0 -67 68 -67 67 149 149
149 149 68 -17 c604 -145 1185 71 1515 562 164 245 241 490 240 762 -1 264
-77 535 -166 590 -41 25 -117 30 -156 10 -13 -7 -181 -169 -374 -360 -364
-361 -363 -361 -444 -360 -55 1 -105 39 -286 218 -191 190 -205 210 -205 288
0 18 6 46 13 63 7 17 166 187 353 377 186 190 347 362 357 383 39 80 1 162
-97 209 -191 91 -485 126 -722 86z m374 -300 c13 -4 22 -10 20 -14 -2 -4 -117
-124 -256 -266 -221 -225 -257 -267 -287 -328 -74 -151 -65 -337 23 -481 36
-60 388 -411 456 -456 148 -98 334 -106 501 -22 36 18 124 99 312 286 145 143
265 258 268 256 3 -3 10 -43 16 -88 28 -210 -52 -495 -197 -698 -69 -97 -188
-211 -286 -276 -272 -181 -602 -231 -918 -140 -123 36 -192 36 -251 1 -24 -15
-123 -107 -219 -205 -97 -98 -655 -662 -1241 -1253 -586 -591 -1159 -1171
-1274 -1288 -184 -188 -216 -216 -279 -247 -98 -49 -175 -62 -266 -46 -235 42
-390 256 -352 486 22 135 29 144 456 575 454 458 1421 1433 2081 2098 253 255
470 479 482 500 35 57 38 110 15 204 -38 149 -45 215 -39 357 7 170 36 283
111 436 65 131 126 214 232 315 168 160 390 269 614 300 65 9 235 5 278 -6z
m-3773 -270 c176 -108 339 -208 362 -221 22 -13 45 -29 51 -36 5 -7 43 -109
83 -227 l73 -215 551 -553 c302 -305 549 -558 547 -563 -1 -5 -55 -63 -120
-129 l-118 -120 -557 559 -558 560 -92 35 c-51 19 -150 57 -222 83 l-130 48
-223 370 -222 369 122 123 c67 67 124 120 127 119 3 -2 150 -93 326 -202z
m3040 -2967 c37 -13 79 -16 160 -14 97 2 115 -1 156 -21 34 -16 213 -191 685
-667 718 -726 700 -704 730 -878 14 -78 13 -96 -1 -179 -19 -109 -55 -190
-124 -274 -173 -212 -488 -264 -741 -121 -41 23 -216 193 -682 661 -724 728
-670 658 -666 854 4 150 -9 181 -128 303 l-87 88 224 229 224 229 100 -97 c78
-76 112 -101 150 -113z"/>
<path d="M7120 5421 c-42 -22 -80 -83 -80 -131 0 -19 9 -50 20 -68 28 -46
1186 -1205 1230 -1231 86 -52 200 3 217 103 13 80 17 74 -621 715 -346 347
-615 609 -633 617 -44 19 -92 18 -133 -5z"/>
</g>
</svg>
